<svg id="Layer_1" enable-background="new 0 0 512 512" height="512" viewBox="0 0 512 512" width="512" xmlns="http://www.w3.org/2000/svg" xmlns:xlink="http://www.w3.org/1999/xlink"><linearGradient id="lg1"><stop offset="0" stop-color="#00a62c"/><stop offset="1" stop-color="#00c140"/></linearGradient><linearGradient id="SVGID_1_" gradientUnits="userSpaceOnUse" x1="218.565" x2="48.128" xlink:href="#lg1" y1="159.502" y2="176.748"/><linearGradient id="lg2"><stop offset="0" stop-color="#00c140"/><stop offset="1" stop-color="#29ce69"/></linearGradient><linearGradient id="SVGID_2_" gradientUnits="userSpaceOnUse" x1="325.666" x2="477.842" xlink:href="#lg2" y1="163.34" y2="176.529"/><linearGradient id="SVGID_3_" gradientUnits="userSpaceOnUse" x1="235.727" x2="283.965" y1="263.667" y2="500.373"><stop offset="0" stop-color="#ffac48"/><stop offset="1" stop-color="#ffc477"/></linearGradient><linearGradient id="SVGID_4_" gradientUnits="userSpaceOnUse" x1="258.717" x2="156.251" y1="104.35" y2="25.218"><stop offset="0" stop-color="#008c1c"/><stop offset="1" stop-color="#00a62c"/></linearGradient><linearGradient id="SVGID_5_" gradientUnits="userSpaceOnUse" x1="283.993" x2="357.037" xlink:href="#lg1" y1="112.516" y2="32.37"/><linearGradient id="SVGID_6_" gradientUnits="userSpaceOnUse" x1="230.194" x2="84.105" xlink:href="#lg2" y1="181.891" y2="72.324"/><linearGradient id="SVGID_7_" gradientUnits="userSpaceOnUse" x1="275.043" x2="431.277" y1="177.486" y2="72.992"><stop offset="0" stop-color="#29ce69"/><stop offset="1" stop-color="#73da8c"/></linearGradient><path d="m279.357 173.904s-58.404-91.409-154.456-61.64c-65.39 20.266-85.347 72.319-91.424 103.488-2.274 11.662 8.444 21.672 19.922 18.602l59.847-16.01c26.248-7.022 53.607-8.889 80.566-5.498l37.884 4.765z" fill="url(#SVGID_1_)"/><path d="m234.008 173.904s58.404-91.409 154.457-61.64c65.39 20.266 85.347 72.319 91.424 103.488 2.274 11.662-8.444 21.672-19.922 18.602l-59.846-16.01c-26.248-7.022-53.607-8.889-80.566-5.498l-37.884 4.765z" fill="url(#SVGID_2_)"/><path d="m232.643 194.726s-72.542 168.451-11.594 296.143c6.198 12.983 19.439 21.131 33.826 21.131h62.437c23.393 0 33.976-17.502 26.281-32.049-25.354-47.929-65.263-147.592-53.924-285.225z" fill="url(#SVGID_3_)"/><circle cx="279.357" cy="225.081" fill="#af602d" r="30.356"/><circle cx="232.643" cy="225.081" fill="#d97c41" r="30.356"/><path d="m280.39 140.807s16.157-92.149-62.253-129.215c-53.379-25.234-96.407-3.777-118.439 12.493-8.243 6.088-7.265 18.698 1.821 23.437l78.837 41.116 44.259 52.17h55.775z" fill="url(#SVGID_4_)"/><path d="m197.341 39.607c-10.523-4.164-22.341 1.108-25.205 12.056 0 0-5.199 15.672 10.122 21.276 8.977 3.283 19.917 9.617 29.116 16.188-.012-.049-.017 14.94-.018 36.051l13.26 15.63h55.774s2.256-12.868.991-30.921c-18.232-27.583-47.373-55.771-84.04-70.28z" fill="#008c1c"/><path d="m244.185 140.807s-16.157-92.149 62.253-129.215c53.379-25.234 96.407-3.778 118.439 12.493 8.243 6.088 7.265 18.698-1.821 23.437l-78.837 41.116-44.26 52.17h-55.774z" fill="url(#SVGID_5_)"/><path d="m127.312 114.378-23.379 15.196c-10.709 6.961-24.323 7.659-35.688 1.829l-38.32-19.656c-12.989-6.662-13.289-25.133-.508-32.186 32.945-18.18 92.86-38.944 161.036-4.464 64.235 32.487 82.637 87.891 87.356 125.24 2.21 17.496-16.031 30.335-31.723 22.286l-96.409-49.451c-10.726-5.502-17.944-16.052-19.184-28.043z" fill="url(#SVGID_6_)"/><path d="m384.688 114.378 23.379 15.196c10.709 6.961 24.323 7.659 35.688 1.829l38.32-19.656c12.989-6.662 13.289-25.133.508-32.186-32.945-18.18-92.86-38.944-161.036-4.464-64.235 32.487-82.637 87.891-87.356 125.24-2.21 17.496 16.031 30.335 31.722 22.286l96.409-49.451c10.726-5.502 17.944-16.052 19.184-28.043z" fill="url(#SVGID_7_)"/><ellipse cx="168.114" cy="164.423" fill="#ffb0d0" rx="14.936" ry="12.003"/><ellipse cx="343.885" cy="164.423" fill="#ffb0d0" rx="14.936" ry="12.003"/><circle cx="193.721" cy="134.806" fill="#fff" r="29.618"/><circle cx="318.279" cy="134.806" fill="#fff" r="29.618"/><g fill="#383842"><circle cx="193.721" cy="134.806" r="17.652"/><circle cx="318.279" cy="134.806" r="17.652"/><path d="m256 167.883c-5.851 0-11.702-2.213-16.476-6.638-3.038-2.816-3.217-7.562-.401-10.599 2.817-3.037 7.562-3.217 10.599-.401 3.755 3.481 8.8 3.481 12.555 0 3.038-2.817 7.783-2.637 10.599.401s2.637 7.783-.401 10.599c-4.773 4.426-10.624 6.638-16.475 6.638z"/></g><path d="m268.961 345.645c-.695-11.023-10.193-19.395-21.22-18.701-16.498 1.039-33.663-2.732-47.592-7.221-1.678 13.107-2.856 26.761-3.292 40.727 13.729 3.783 29.425 6.663 45.41 6.663 19.211.151 27.39-10.444 26.694-21.468z" fill="#ff9827"/><path d="m269.472 416.657c-11.051-.358-20.261 8.276-20.639 19.305-.378 11.038 7.167 20.719 22.767 20.719 8.642 0 31.971-.711 57.321-7.445-4.805-11.151-9.687-23.706-14.332-37.599-23.546 5.575-44.808 5.029-45.117 5.02z" fill="#ff9827"/></svg>